# xmcd CD database file
#
# Track frame offsets:
#	150
#	43475
#	123512
#	207587
#
# Disc length: 4202 seconds
#
# Revision: 0
# Processed by: cddbd v1.5PL3 Copyright (c) Steve Scherf et al.
# Submitted via: CDex 1.51
#
DISCID=3e106804
DTITLE=David Murray - 3D Family
DYEAR=1990
DGENRE=Jazz
TTITLE0=In Memory of Jomo Kenyatta
TTITLE1=Patricia
TTITLE2=3D Family (For Walter P. Murray)
TTITLE3=Shout Song (for Cecil Taylor)
EXTD=YEAR: 1990
EXTT0=
EXTT1=
EXTT2=
EXTT3=
PLAYORDER=
